<svg xmlns="http://www.w3.org/2000/svg" xmlns:xlink="http://www.w3.org/1999/xlink" width="214.032" height="220.905" viewBox="0 0 214.032 220.905">
  <defs>
    <radialGradient id="radial-gradient" cx="0.5" cy="0.503" r="0.448" gradientTransform="matrix(0.989, 0.416, -0.529, 1.061, -0.879, -1.592)" gradientUnits="objectBoundingBox">
      <stop offset="0.957" stop-color="#e99b1f"/>
      <stop offset="0.961" stop-color="#ea9f22"/>
      <stop offset="0.985" stop-color="#f4b533"/>
      <stop offset="1" stop-color="#f8be3a"/>
    </radialGradient>
    <linearGradient id="linear-gradient" x1="1.724" y1="-1.266" x2="1.521" y2="-2.475" gradientUnits="objectBoundingBox">
      <stop offset="0" stop-color="#fff"/>
      <stop offset="0.04" stop-color="#f6f6f6"/>
      <stop offset="0.103" stop-color="#e0e0e0"/>
      <stop offset="0.181" stop-color="#bbb"/>
      <stop offset="0.271" stop-color="#898989"/>
      <stop offset="0.364" stop-color="#4d4d4d"/>
      <stop offset="0.81" stop-color="#fff"/>
      <stop offset="0.833" stop-color="#f6f6f6"/>
      <stop offset="0.868" stop-color="#e0e0e0"/>
      <stop offset="0.912" stop-color="#bcbcbc"/>
      <stop offset="0.963" stop-color="#898989"/>
      <stop offset="0.995" stop-color="#666"/>
    </linearGradient>
    <radialGradient id="radial-gradient-2" cx="0.5" cy="0.5" r="0.493" gradientTransform="matrix(0.082, 0.996, -1.013, 0.104, 1.336, -5.053)" gradientUnits="objectBoundingBox">
      <stop offset="0.714" stop-color="#f8be3a"/>
      <stop offset="0.896" stop-color="#f8be3a"/>
      <stop offset="0.932" stop-color="#f4b533"/>
      <stop offset="0.99" stop-color="#ea9f22"/>
      <stop offset="1" stop-color="#e99b1f"/>
    </radialGradient>
    <linearGradient id="linear-gradient-2" x1="1.214" y1="-3.05" x2="2.138" y2="-2.113" gradientUnits="objectBoundingBox">
      <stop offset="0" stop-color="#e48f16"/>
      <stop offset="1" stop-color="#ffcd45"/>
    </linearGradient>
    <linearGradient id="linear-gradient-3" x1="4.023" y1="-10.097" x2="5.378" y2="-10.097" gradientUnits="objectBoundingBox">
      <stop offset="0.056"/>
      <stop offset="0.5" stop-color="#ffe999"/>
      <stop offset="1"/>
    </linearGradient>
    <linearGradient id="linear-gradient-4" x1="1.955" y1="-1.186" x2="1.375" y2="-4.408" xlink:href="#linear-gradient-2"/>
    <linearGradient id="linear-gradient-5" x1="3.075" y1="-11.791" x2="4.253" y2="-11.791" xlink:href="#linear-gradient-3"/>
    <linearGradient id="linear-gradient-6" x1="2.031" y1="-7.315" x2="3.501" y2="-7.315" xlink:href="#linear-gradient-3"/>
    <radialGradient id="radial-gradient-3" cx="0.384" cy="0.361" r="0.406" gradientTransform="matrix(1.392, 0.091, -0.137, 1.075, -0.582, -0.141)" gradientUnits="objectBoundingBox">
      <stop offset="0" stop-color="#93278f"/>
      <stop offset="1" stop-color="#67269b"/>
    </radialGradient>
    <radialGradient id="radial-gradient-4" cx="0.374" cy="0.394" r="0.51" gradientTransform="matrix(1.399, 0.091, -0.138, 1.075, -0.596, -0.144)" xlink:href="#radial-gradient-3"/>
  </defs>
  <g id="bitcoin-icon" transform="translate(-373.815 -248.992)">
    <path id="Path_309" data-name="Path 309" d="M792.309,572.328c14.62-31.678,9.319-66.449-10.823-87.467A128.566,128.566,0,0,0,757.2,465.5l-7.839-.745s.424,1.079,1.015,2.566c-32.99-7.421-69.861,12.423-86.519,48.517-16.134,34.959-7.883,75.621,17.676,95.473l1.082,4.334c9.683,4.259,26.332,7.683,35.06,6.715h0C747.26,623.32,777.631,604.132,792.309,572.328Z" transform="translate(-232.845 -178.301)" fill="url(#radial-gradient)"/>
    <path id="Path_310" data-name="Path 310" d="M792.309,572.328c14.822-32.117,9.168-67.413-11.669-88.333-2.6-2.613-8.508-7.133-8.508-7.133C768.819,474.011,757.2,465.5,757.2,465.5l-7.839-.745s.424,1.079,1.015,2.566c-32.99-7.421-69.861,12.423-86.519,48.517-16.134,34.959-7.883,75.621,17.676,95.473l1.082,4.334c9.683,4.259,26.332,7.683,35.06,6.715h0C747.26,623.32,777.631,604.132,792.309,572.328Z" transform="translate(-232.845 -178.301)" opacity="0.4" fill="url(#linear-gradient)" style="mix-blend-mode: overlay;isolation: isolate"/>
    <ellipse id="Ellipse_113" data-name="Ellipse 113" cx="84.396" cy="75.59" rx="84.396" ry="75.59" transform="translate(373.815 396.646) rotate(-61.018)" fill="url(#radial-gradient-2)"/>
    <ellipse id="Ellipse_114" data-name="Ellipse 114" cx="64.405" cy="55.141" rx="64.405" ry="55.141" transform="matrix(0.466, -0.885, 0.885, 0.466, 397.984, 388.691)" fill="url(#linear-gradient-2)"/>
    <path id="Path_311" data-name="Path 311" d="M674.2,1035.016c-15.181-6.67-25.219-20.4-28.814-36.733,1.884,13.172,8.263,24.8,18.991,32.328a45.3,45.3,0,0,0,22.207,7.961A48.184,48.184,0,0,1,674.2,1035.016Z" transform="translate(-224.419 -619.205)" opacity="0.57" fill="url(#linear-gradient-3)" style="mix-blend-mode: screen;isolation: isolate"/>
    <ellipse id="Ellipse_115" data-name="Ellipse 115" cx="60.56" cy="51.951" rx="60.56" ry="51.951" transform="translate(404.295 389.875) rotate(-62.506)" fill="url(#linear-gradient-4)"/>
    <path id="Path_312" data-name="Path 312" d="M705.876,1056.848c-13.312-5.862-22.743-16.959-27.34-30.294,3.992,13.834,13.072,25.313,26.276,31.127a47.08,47.08,0,0,0,28.177,2.933A50.559,50.559,0,0,1,705.876,1056.848Z" transform="translate(-251.817 -642.568)" opacity="0.57" fill="url(#linear-gradient-5)" style="mix-blend-mode: screen;isolation: isolate"/>
    <path id="Path_313" data-name="Path 313" d="M1126.59,439.529c26.525,6.231,45.767,32.9,46.606,57.93C1169.928,480.471,1158.392,450.914,1126.59,439.529Z" transform="translate(-622.084 -157.457)" opacity="0.57" fill="url(#linear-gradient-6)" style="mix-blend-mode: screen;isolation: isolate"/>
    <path id="Path_314" data-name="Path 314" d="M788.121,717.991a1.365,1.365,0,0,1-.4-.06l-4.864-1.485a1.368,1.368,0,0,1-.909-1.708l2.818-9.231-19.3-5.891a1.368,1.368,0,0,1-.909-1.707l22.356-73.227a1.367,1.367,0,0,1,1.707-.909l19.3,5.891,1.675-5.485a1.366,1.366,0,0,1,1.707-.909l4.865,1.485a1.368,1.368,0,0,1,.909,1.707l-1.68,5.5c7.544,2.534,12.507,6.324,14.761,11.277a21.307,21.307,0,0,1,1.215,15.433,20,20,0,0,1-5.366,8.756,19.073,19.073,0,0,1-7.029,4.191,18.835,18.835,0,0,1,5.718,8.712,21.452,21.452,0,0,1-.175,12.616,25.6,25.6,0,0,1-6.622,11.007,19.461,19.461,0,0,1-11.132,5.484,22.788,22.788,0,0,1-3.109.2,42.1,42.1,0,0,1-11.408-1.864l-2.821,9.239a1.368,1.368,0,0,1-1.308.969Zm7.583-21.521a26.684,26.684,0,0,0,6.959,1.111h0a9.74,9.74,0,0,0,4.4-.888c2.684-1.358,4.522-3.764,5.618-7.355,1.138-3.728.886-6.8-.77-9.385-1.54-2.406-4.675-4.423-9.329-6.007Zm-7.485-2.27,6.887-22.559-9.04-2.76-6.887,22.559Zm17.83-31.616a21.443,21.443,0,0,0,5.218.755,9.052,9.052,0,0,0,3.579-.641c2.252-.972,3.826-3.011,4.809-6.233,1.023-3.352.889-6.109-.4-8.194-1.192-1.93-3.652-3.6-7.323-4.962Zm-7.491-2.25,5.911-19.362-9.04-2.76-5.911,19.362Z" transform="translate(-322.858 -309.249)" fill="url(#radial-gradient-3)"/>
    <path id="Path_315" data-name="Path 315" d="M790.075,719.534a.962.962,0,0,1-.28-.042l-4.864-1.485a.957.957,0,0,1-.636-1.2l2.938-9.624-19.689-6.011a.957.957,0,0,1-.636-1.2l22.356-73.227a.958.958,0,0,1,1.2-.636l19.689,6.011,1.794-5.877a.957.957,0,0,1,1.2-.636L818,627.1a.958.958,0,0,1,.636,1.2l-1.8,5.886c7.646,2.5,12.655,6.256,14.9,11.184a20.91,20.91,0,0,1,1.2,15.143,19.594,19.594,0,0,1-5.256,8.579,18.916,18.916,0,0,1-7.564,4.324,18.661,18.661,0,0,1,6.143,8.994,21.05,21.05,0,0,1-.175,12.378,25.191,25.191,0,0,1-6.516,10.833,19.06,19.06,0,0,1-10.9,5.372,22.4,22.4,0,0,1-3.053.2,42.283,42.283,0,0,1-11.682-1.961l-2.939,9.627A.957.957,0,0,1,790.075,719.534Zm7.068-20.83a27.755,27.755,0,0,0,7.473,1.24h0a10.14,10.14,0,0,0,4.584-.932c2.75-1.392,4.711-3.949,5.825-7.6,1.175-3.849.908-7.031-.817-9.726-1.635-2.554-4.979-4.675-9.944-6.309Zm-6.7-2.038,7.127-23.344-9.825-3-7.127,23.344Zm17.041-31.84a22.483,22.483,0,0,0,5.735.877,9.455,9.455,0,0,0,3.742-.674c2.37-1.022,4.018-3.145,5.039-6.49,1.059-3.47.911-6.34-.442-8.529-1.285-2.08-3.953-3.854-7.938-5.28Zm-6.7-2.026,6.151-20.147-9.825-3L790.96,659.8Z" transform="translate(-324.812 -311.203)" fill="#af57e0"/>
    <path id="Path_316" data-name="Path 316" d="M788.363,722.413a.826.826,0,0,1-.24-.036l-4.864-1.485a.82.82,0,0,1-.545-1.024l2.978-9.755-19.82-6.051a.82.82,0,0,1-.545-1.024l22.356-73.227a.821.821,0,0,1,1.024-.545l19.82,6.051,1.834-6.008a.82.82,0,0,1,1.024-.545l4.864,1.485a.821.821,0,0,1,.545,1.024l-1.836,6.015c7.679,2.484,12.7,6.234,14.942,11.152a20.776,20.776,0,0,1,1.19,15.047,19.457,19.457,0,0,1-5.22,8.52,18.865,18.865,0,0,1-7.753,4.366,18.612,18.612,0,0,1,6.3,9.091,20.917,20.917,0,0,1-.175,12.3,25.059,25.059,0,0,1-6.481,10.776,18.928,18.928,0,0,1-10.825,5.334,22.285,22.285,0,0,1-3.034.2,42.347,42.347,0,0,1-11.773-1.994l-2.979,9.757A.821.821,0,0,1,788.363,722.413Zm6.9-20.6A28.1,28.1,0,0,0,802.9,703.1h0a10.271,10.271,0,0,0,4.646-.947c2.785-1.409,4.768-3.994,5.895-7.684,1.188-3.89.915-7.109-.833-9.839-1.667-2.6-5.079-4.758-10.149-6.409Zm-6.435-1.96,7.207-23.605-10.087-3.08-7.206,23.605ZM805.6,667.935a22.843,22.843,0,0,0,5.907.918,9.593,9.593,0,0,0,3.8-.685c2.375-1.025,4.1-3.237,5.116-6.576,1.071-3.509.918-6.417-.457-8.641-1.316-2.13-4.054-3.94-8.144-5.385Zm-6.438-1.95,6.231-20.408L795.308,642.5l-6.231,20.408Z" transform="translate(-323.51 -313.808)" fill="url(#radial-gradient-4)"/>
  </g>
</svg>
